<svg width="19" height="18" viewBox="0 0 19 18" fill="none" xmlns="http://www.w3.org/2000/svg">
<g clip-path="url(#clip0_611_765)">
<path d="M7.20918 9.99273C7.20777 10.0964 7.18535 10.1989 7.14323 10.2942C7.10111 10.3896 7.04011 10.476 6.96373 10.5485C6.88734 10.621 6.79708 10.6781 6.69811 10.7167C6.59914 10.7552 6.49342 10.7743 6.387 10.773L3.33761 10.74C3.23118 10.739 3.12608 10.7176 3.02834 10.6769C2.93059 10.6362 2.84212 10.5772 2.768 10.503C2.69388 10.4289 2.63557 10.3412 2.59641 10.245C2.55725 10.1487 2.53801 10.0458 2.5398 9.94215L2.58568 6.97167C2.58728 6.86805 2.60982 6.76568 2.652 6.67039C2.69419 6.5751 2.75519 6.48876 2.83154 6.41631C2.90789 6.34385 2.99808 6.2867 3.09696 6.24811C3.19585 6.20952 3.30149 6.19026 3.40786 6.19141C3.51423 6.19256 3.61925 6.21411 3.71691 6.25483C3.81457 6.29555 3.90296 6.35463 3.97705 6.42872C4.05113 6.5028 4.10945 6.59043 4.14868 6.6866C4.1879 6.78277 4.20727 6.8856 4.20567 6.98922L4.19013 8.05674L10.5258 2.04415C10.6797 1.89808 10.8867 1.81732 11.1011 1.81965C11.3156 1.82197 11.5199 1.90718 11.6693 2.05654C11.8187 2.2059 11.9008 2.40717 11.8975 2.61607C11.8943 2.82497 11.806 3.0244 11.6521 3.17047L5.31645 9.18306L6.41376 9.19448C6.52002 9.19576 6.6249 9.21742 6.7224 9.25824C6.8199 9.29906 6.9081 9.35823 6.98198 9.43236C7.05585 9.5065 7.11394 9.59415 7.15293 9.6903C7.19191 9.78645 7.21103 9.88922 7.20918 9.99273ZM16.3574 10.0918L16.4032 7.12134C16.405 7.01768 16.3858 6.91477 16.3466 6.81852C16.3075 6.72227 16.2492 6.63457 16.175 6.56045C16.1009 6.48633 16.0125 6.42725 15.9147 6.38659C15.817 6.34594 15.7119 6.32451 15.6054 6.32354L12.556 6.2905C12.3412 6.28818 12.1339 6.36908 11.9797 6.5154C11.8255 6.66173 11.7371 6.8615 11.7339 7.07076C11.7306 7.28003 11.8129 7.48165 11.9625 7.63127C12.1121 7.78088 12.3168 7.86625 12.5317 7.86857L13.6285 7.88045L7.29285 13.893C7.13893 14.0391 7.05065 14.2385 7.04742 14.4474C7.04419 14.6563 7.12629 14.8576 7.27565 15.007C7.42501 15.1563 7.62939 15.2415 7.84385 15.2439C8.0583 15.2462 8.26525 15.1654 8.41917 15.0194L14.7548 9.00677L14.7378 10.0757C14.7346 10.2849 14.8168 10.4866 14.9665 10.6362C15.1161 10.7858 15.3208 10.8712 15.5356 10.8735C15.7505 10.8758 15.9578 10.7949 16.112 10.6486C16.2661 10.5023 16.3546 10.3025 16.3578 10.0932L16.3574 10.0918Z" fill="#4A5DCD"/>
</g>
<defs>
<clipPath id="clip0_611_765">
<rect width="16.9904" height="17.069" fill="white" transform="matrix(1 0 -0.0261531 0.999658 1.20001 0)"/>
</clipPath>
</defs>
</svg>
